<?xml version="1.0" encoding="utf-8"?>
<!-- Generator: Adobe Illustrator 15.1.0, SVG Export Plug-In . SVG Version: 6.00 Build 0)  -->
<!DOCTYPE svg PUBLIC "-//W3C//DTD SVG 1.1//EN" "http://www.w3.org/Graphics/SVG/1.1/DTD/svg11.dtd">
<svg version="1.1" id="Layer_2" xmlns="http://www.w3.org/2000/svg" xmlns:xlink="http://www.w3.org/1999/xlink" x="0px" y="0px"
	 width="28px" height="28px" viewBox="0 0 28 28" enable-background="new 0 0 28 28" xml:space="preserve">
<path fill="#566B8D" d="M2.301,0h23.398c0.639,0,1.182,0.225,1.629,0.671C27.775,1.118,28,1.662,28,2.301v14.064
	c0,0.639-0.225,1.183-0.672,1.631c-0.447,0.447-0.99,0.67-1.629,0.67H2.301c-0.639,0-1.183-0.223-1.63-0.67
	C0.223,17.548,0,17.004,0,16.365V2.301c0-0.639,0.225-1.183,0.671-1.63C1.119,0.225,1.662,0,2.301,0z M2.301,1.15
	c-0.298,0-0.564,0.119-0.799,0.353S1.15,2.004,1.15,2.302v14.064c0,0.299,0.117,0.564,0.352,0.799
	c0.232,0.234,0.5,0.352,0.799,0.352H14V1.152H2.301V1.15z M15.128,6.375v1.15h10.506v-1.15H15.128z M15.128,4.042v1.149h10.506
	V4.042H15.128z M16.277,8.708v1.149h8.205V8.708H16.277z M16.277,12.861v2.289h8.02v-2.289H16.277z M12.621,15.193H9.523H7.402
	H2.184l3.67-10.309l2.647,7.435l1.54-4.029L12.621,15.193z M9.523,4.885c0.268,0,0.506-0.104,0.718-0.314
	c0.21-0.209,0.315-0.469,0.315-0.774s-0.105-0.554-0.315-0.746c-0.21-0.19-0.45-0.286-0.718-0.286c-0.307,0-0.563,0.096-0.773,0.286
	C8.54,3.241,8.436,3.49,8.436,3.796S8.54,4.359,8.75,4.57C8.959,4.781,9.217,4.885,9.523,4.885z"/>
</svg>
